<?xml version="1.0" encoding="utf-8"?>
<svg version="1.1" xmlns:xlink="http://www.w3.org/1999/xlink" width="300px" height="170px" xmlns="http://www.w3.org/2000/svg">
  <g transform="matrix(1 0 0 1 -26 -307 )">
    <path d="M 26 307  L 326 307  L 326 477  L 26 477  L 26 307  " fill-rule="nonzero" fill="#cccccc" stroke="none" />
    <path d="M 38 319  L 314 319  L 314 465  L 38 465  L 38 319  " fill-rule="nonzero" fill="#ffffff" stroke="none" />
    <path d="M 194.75 358  C 187.61 358  182 352.39  182 345.25  C 182 338.11  187.61 332.5  194.75 332.5  C 201.89 332.5  207.5 338.11  207.5 345.25  C 207.5 352.39  201.89 358  194.75 358  " fill-rule="nonzero" fill="#cccccc" stroke="none" />
    <path d="M 43 461  L 43 385.65  L 109.75 351.4  L 203.2 414.42  L 256.6 371.95  L 310 414.42  L 310 461  L 43 461  " fill-rule="nonzero" fill="#169bd5" stroke="none" />
  </g>
</svg>