<?xml version="1.0" encoding="utf-8"?>
<svg version="1.1" xmlns:xlink="http://www.w3.org/1999/xlink" width="90px" height="92px" xmlns="http://www.w3.org/2000/svg">
  <g transform="matrix(1 0 0 1 -3 -4 )">
    <path d="M 3 4  L 93 4  L 93 96  L 3 96  L 3 4  " fill-rule="nonzero" fill="#cccccc" stroke="none" />
    <path d="M 9 10  L 87 10  L 87 90  L 9 90  L 9 10  " fill-rule="nonzero" fill="#ffffff" stroke="none" />
    <path d="M 56.550000000000004 31.299999999999997  C 52.77 31.299999999999997  49.800000000000004 28.33  49.800000000000004 24.549999999999997  C 49.800000000000004 20.769999999999996  52.77 17.799999999999997  56.550000000000004 17.799999999999997  C 60.330000000000005 17.799999999999997  63.300000000000004 20.769999999999996  63.300000000000004 24.549999999999997  C 63.300000000000004 28.33  60.330000000000005 31.299999999999997  56.550000000000004 31.299999999999997  " fill-rule="nonzero" fill="#cccccc" stroke="none" />
    <path d="M 12 88  L 12 46.75  L 30.25 28  L 55.8 43  L 70.4 39.25  L 85 43  L 85 88  L 12 88  " fill-rule="nonzero" fill="#169bd5" stroke="none" />
  </g>
</svg>