<?xml version="1.0" encoding="utf-8"?>
<svg version="1.1" xmlns:xlink="http://www.w3.org/1999/xlink" width="520px" height="318px" xmlns="http://www.w3.org/2000/svg">
  <g transform="matrix(1 0 0 1 -48 -157 )">
    <path d="M 48 157  L 568 157  L 568 475  L 48 475  L 48 157  " fill-rule="nonzero" fill="#cccccc" stroke="none" />
    <path d="M 70 179  L 546 179  L 546 453  L 70 453  L 70 179  " fill-rule="nonzero" fill="#ffffff" stroke="none" />
    <path d="M 342.25 252.39999999999998  C 328.894 252.39999999999998  318.40000000000003 241.90599999999998  318.40000000000003 228.54999999999998  C 318.40000000000003 215.194  328.894 204.7  342.25 204.7  C 355.606 204.7  366.1 215.194  366.1 228.54999999999998  C 366.1 241.90599999999998  355.606 252.39999999999998  342.25 252.39999999999998  " fill-rule="nonzero" fill="#cccccc" stroke="none" />
    <path d="M 78 445  L 78 303.1  L 193 238.6  L 354 350.33384615384614  L 446 277.29999999999995  L 538 350.33384615384614  L 538 445  L 78 445  " fill-rule="nonzero" fill="#169bd5" stroke="none" />
  </g>
</svg>