<?xml version="1.0" encoding="utf-8"?>
<svg version="1.1" xmlns:xlink="http://www.w3.org/1999/xlink" width="259px" height="261px" xmlns="http://www.w3.org/2000/svg">
  <g transform="matrix(1 0 0 1 -15 -1063 )">
    <path d="M 15 1063  L 274 1063  L 274 1324  L 15 1324  L 15 1063  " fill-rule="nonzero" fill="#cccccc" stroke="none" />
    <path d="M 33 1081  L 256 1081  L 256 1306  L 33 1306  L 33 1081  " fill-rule="nonzero" fill="#ffffff" stroke="none" />
    <path d="M 169.10500000000002 1141  C 158.227 1141  149.68 1132.453  149.68 1121.575  C 149.68 1110.6970000000001  158.227 1102.15  169.10500000000002 1102.15  C 179.983 1102.15  188.53 1110.6970000000001  188.53 1121.575  C 188.53 1132.453  179.983 1141  169.10500000000002 1141  " fill-rule="nonzero" fill="#cccccc" stroke="none" />
    <path d="M 40 1300  L 40 1183.4  L 92.5 1130.4  L 166 1172.8  L 208 1162.2  L 250 1172.8  L 250 1300  L 40 1300  " fill-rule="nonzero" fill="#169bd5" stroke="none" />
  </g>
</svg>